# Blender 3.3.1
# www.blender.org
o Cube
v 0.100000 -0.100000 -0.100000
v 0.100000 0.100000 -0.100000
v 0.100000 -0.100000 0.100000
v 0.100000 0.100000 0.100000
v -0.100000 -0.100000 -0.100000
v -0.100000 0.100000 -0.100000
v -0.100000 -0.100000 0.100000
v -0.100000 0.100000 0.100000
v 0.100000 0.100000 0.500000
v 0.100000 -0.100000 0.500000
v -0.100000 -0.100000 0.500000
v -0.100000 0.100000 0.500000
v 0.100000 -0.100000 -0.500000
v 0.100000 0.100000 -0.500000
v -0.100000 0.100000 -0.500000
v -0.100000 -0.100000 -0.500000
v 0.100000 0.400000 -0.100000
v 0.100000 0.400000 0.100000
v -0.100000 0.400000 0.100000
v -0.100000 0.400000 -0.100000
v 0.100000 -0.100000 0.000000
v 0.100000 0.000000 -0.100000
v 0.100000 0.100000 0.000000
v 0.100000 0.000000 0.100000
v 0.000000 -0.100000 0.100000
v 0.000000 0.100000 0.100000
v -0.100000 0.000000 0.100000
v -0.100000 -0.100000 0.000000
v -0.100000 0.100000 0.000000
v -0.100000 0.000000 -0.100000
v 0.000000 -0.100000 -0.100000
v 0.000000 0.100000 -0.100000
v 0.100000 0.000000 0.500000
v 0.000000 -0.100000 0.500000
v 0.000000 0.100000 0.500000
v -0.100000 0.000000 0.500000
v -0.100000 -0.100000 0.300000
v -0.100000 0.100000 0.300000
v 0.100000 -0.100000 0.300000
v 0.100000 0.100000 0.300000
v 0.100000 0.000000 -0.500000
v -0.100000 0.000000 -0.500000
v 0.000000 -0.100000 -0.500000
v 0.000000 0.100000 -0.500000
v 0.100000 -0.100000 -0.300000
v 0.100000 0.100000 -0.300000
v -0.100000 -0.100000 -0.300000
v -0.100000 0.100000 -0.300000
v 0.100000 0.400000 0.000000
v 0.000000 0.400000 0.100000
v -0.100000 0.400000 0.000000
v 0.000000 0.400000 -0.100000
v -0.100000 0.250000 0.100000
v -0.100000 0.250000 -0.100000
v 0.100000 0.250000 -0.100000
v 0.100000 0.250000 0.100000
v 0.100000 0.000000 0.000000
v -0.100000 0.000000 0.300000
v -0.100000 0.000000 0.000000
v 0.100000 0.000000 -0.300000
v -0.000000 -0.100000 0.000000
v -0.100000 0.250000 0.000000
v -0.000000 0.000000 0.500000
v 0.000000 -0.100000 0.300000
v 0.000000 0.100000 0.300000
v 0.100000 0.000000 0.300000
v 0.000000 0.000000 -0.500000
v 0.000000 -0.100000 -0.300000
v 0.000000 0.100000 -0.300000
v -0.100000 0.000000 -0.300000
v 0.000000 0.400000 -0.000000
v 0.100000 0.250000 0.000000
v 0.000000 0.250000 -0.100000
v 0.000000 0.250000 0.100000
vn 1.0000 -0.0000 -0.0000
vn -1.0000 -0.0000 -0.0000
vn -0.0000 -1.0000 -0.0000
vn -0.0000 -0.0000 1.0000
vn -0.0000 1.0000 -0.0000
vn -0.0000 -0.0000 -1.0000
s 0
f 22//1 21//1 1//1
f 2//1 57//1 22//1
f 23//1 24//1 57//1
f 57//1 3//1 21//1
f 8//2 58//2 38//2
f 7//2 58//2 27//2
f 37//2 36//2 58//2
f 58//2 12//2 38//2
f 27//2 28//2 7//2
f 8//2 59//2 27//2
f 29//2 30//2 59//2
f 59//2 5//2 28//2
f 2//1 60//1 46//1
f 1//1 60//1 22//1
f 45//1 41//1 60//1
f 60//1 14//1 46//1
f 25//3 21//3 3//3
f 7//3 61//3 25//3
f 28//3 31//3 61//3
f 61//3 1//3 21//3
f 6//2 62//2 54//2
f 8//2 62//2 29//2
f 53//2 51//2 62//2
f 62//2 20//2 54//2
f 33//4 34//4 10//4
f 9//4 63//4 33//4
f 35//4 36//4 63//4
f 63//4 11//4 34//4
f 7//3 64//3 37//3
f 3//3 64//3 25//3
f 39//3 34//3 64//3
f 64//3 11//3 37//3
f 4//5 65//5 40//5
f 8//5 65//5 26//5
f 38//5 35//5 65//5
f 65//5 9//5 40//5
f 3//1 66//1 39//1
f 4//1 66//1 24//1
f 40//1 33//1 66//1
f 66//1 10//1 39//1
f 42//6 43//6 16//6
f 15//6 67//6 42//6
f 44//6 41//6 67//6
f 67//6 13//6 43//6
f 1//3 68//3 45//3
f 5//3 68//3 31//3
f 47//3 43//3 68//3
f 68//3 13//3 45//3
f 6//5 69//5 48//5
f 2//5 69//5 32//5
f 46//5 44//5 69//5
f 69//5 15//5 48//5
f 5//2 70//2 47//2
f 6//2 70//2 30//2
f 48//2 42//2 70//2
f 70//2 16//2 47//2
f 50//5 51//5 19//5
f 18//5 71//5 50//5
f 49//5 52//5 71//5
f 71//5 20//5 51//5
f 23//1 56//1 4//1
f 2//1 72//1 23//1
f 55//1 49//1 72//1
f 72//1 18//1 56//1
f 32//6 55//6 2//6
f 6//6 73//6 32//6
f 54//6 52//6 73//6
f 73//6 17//6 55//6
f 26//4 53//4 8//4
f 4//4 74//4 26//4
f 56//4 50//4 74//4
f 74//4 19//4 53//4
f 22//1 57//1 21//1
f 2//1 23//1 57//1
f 23//1 4//1 24//1
f 57//1 24//1 3//1
f 8//2 27//2 58//2
f 7//2 37//2 58//2
f 37//2 11//2 36//2
f 58//2 36//2 12//2
f 27//2 59//2 28//2
f 8//2 29//2 59//2
f 29//2 6//2 30//2
f 59//2 30//2 5//2
f 2//1 22//1 60//1
f 1//1 45//1 60//1
f 45//1 13//1 41//1
f 60//1 41//1 14//1
f 25//3 61//3 21//3
f 7//3 28//3 61//3
f 28//3 5//3 31//3
f 61//3 31//3 1//3
f 6//2 29//2 62//2
f 8//2 53//2 62//2
f 53//2 19//2 51//2
f 62//2 51//2 20//2
f 33//4 63//4 34//4
f 9//4 35//4 63//4
f 35//4 12//4 36//4
f 63//4 36//4 11//4
f 7//3 25//3 64//3
f 3//3 39//3 64//3
f 39//3 10//3 34//3
f 64//3 34//3 11//3
f 4//5 26//5 65//5
f 8//5 38//5 65//5
f 38//5 12//5 35//5
f 65//5 35//5 9//5
f 3//1 24//1 66//1
f 4//1 40//1 66//1
f 40//1 9//1 33//1
f 66//1 33//1 10//1
f 42//6 67//6 43//6
f 15//6 44//6 67//6
f 44//6 14//6 41//6
f 67//6 41//6 13//6
f 1//3 31//3 68//3
f 5//3 47//3 68//3
f 47//3 16//3 43//3
f 68//3 43//3 13//3
f 6//5 32//5 69//5
f 2//5 46//5 69//5
f 46//5 14//5 44//5
f 69//5 44//5 15//5
f 5//2 30//2 70//2
f 6//2 48//2 70//2
f 48//2 15//2 42//2
f 70//2 42//2 16//2
f 50//5 71//5 51//5
f 18//5 49//5 71//5
f 49//5 17//5 52//5
f 71//5 52//5 20//5
f 23//1 72//1 56//1
f 2//1 55//1 72//1
f 55//1 17//1 49//1
f 72//1 49//1 18//1
f 32//6 73//6 55//6
f 6//6 54//6 73//6
f 54//6 20//6 52//6
f 73//6 52//6 17//6
f 26//4 74//4 53//4
f 4//4 56//4 74//4
f 56//4 18//4 50//4
f 74//4 50//4 19//4
